<svg width="403" height="260" viewBox="0 0 403 260" fill="none" xmlns="http://www.w3.org/2000/svg">
<g filter="url(#filter0_dddddd_1_997)">
<rect x="80" y="2" width="243" height="168" rx="10" fill="white"/>
</g>
<path d="M98.9647 34V24.907H95.4437V23.92H103.515V24.907H99.9937V34H98.9647ZM106.673 34.21C105.922 34.21 105.28 34.0397 104.748 33.699C104.216 33.3583 103.808 32.887 103.523 32.285C103.238 31.683 103.096 30.9923 103.096 30.213C103.096 29.4197 103.241 28.7243 103.53 28.127C103.819 27.5297 104.23 27.0653 104.762 26.734C105.299 26.398 105.936 26.23 106.673 26.23C107.429 26.23 108.073 26.4003 108.605 26.741C109.142 27.077 109.55 27.546 109.83 28.148C110.115 28.7453 110.257 29.4337 110.257 30.213C110.257 31.0063 110.115 31.704 109.83 32.306C109.545 32.9033 109.135 33.37 108.598 33.706C108.061 34.042 107.42 34.21 106.673 34.21ZM106.673 33.223C107.513 33.223 108.138 32.9453 108.549 32.39C108.96 31.83 109.165 31.1043 109.165 30.213C109.165 29.2983 108.957 28.5703 108.542 28.029C108.131 27.4877 107.508 27.217 106.673 27.217C106.108 27.217 105.642 27.3453 105.273 27.602C104.909 27.854 104.636 28.2063 104.454 28.659C104.277 29.107 104.188 29.625 104.188 30.213C104.188 31.123 104.398 31.8533 104.818 32.404C105.238 32.95 105.856 33.223 106.673 33.223ZM115.917 34C115.493 34.0887 115.073 34.1237 114.657 34.105C114.247 34.0863 113.878 33.9977 113.551 33.839C113.229 33.6803 112.984 33.433 112.816 33.097C112.681 32.817 112.606 32.5347 112.592 32.25C112.583 31.9607 112.578 31.6317 112.578 31.263V24.34H113.6V31.221C113.6 31.5383 113.603 31.8043 113.607 32.019C113.617 32.229 113.666 32.4157 113.754 32.579C113.922 32.8917 114.188 33.0783 114.552 33.139C114.921 33.1997 115.376 33.1857 115.917 33.097V34ZM110.961 27.322V26.44H115.917V27.322H110.961ZM119.57 34.21C119 34.21 118.522 34.1073 118.135 33.902C117.752 33.6967 117.465 33.4237 117.274 33.083C117.082 32.7423 116.987 32.3713 116.987 31.97C116.987 31.5593 117.068 31.2093 117.232 30.92C117.4 30.626 117.626 30.3857 117.911 30.199C118.2 30.0123 118.534 29.87 118.912 29.772C119.294 29.6787 119.717 29.597 120.179 29.527C120.645 29.4523 121.1 29.3893 121.544 29.338C121.992 29.282 122.384 29.2283 122.72 29.177L122.356 29.401C122.37 28.6543 122.225 28.1013 121.922 27.742C121.618 27.3827 121.091 27.203 120.34 27.203C119.822 27.203 119.383 27.3197 119.024 27.553C118.669 27.7863 118.419 28.155 118.275 28.659L117.274 28.365C117.446 27.6883 117.794 27.1633 118.317 26.79C118.839 26.4167 119.518 26.23 120.354 26.23C121.044 26.23 121.63 26.3607 122.111 26.622C122.596 26.8787 122.939 27.252 123.14 27.742C123.233 27.9613 123.294 28.2063 123.322 28.477C123.35 28.7477 123.364 29.023 123.364 29.303V34H122.447V32.103L122.713 32.215C122.456 32.8637 122.057 33.3583 121.516 33.699C120.974 34.0397 120.326 34.21 119.57 34.21ZM119.689 33.321C120.169 33.321 120.589 33.2347 120.949 33.062C121.308 32.8893 121.597 32.6537 121.817 32.355C122.036 32.0517 122.178 31.711 122.244 31.333C122.3 31.0903 122.33 30.8243 122.335 30.535C122.339 30.241 122.342 30.0217 122.342 29.877L122.734 30.08C122.384 30.1267 122.003 30.1733 121.593 30.22C121.187 30.2667 120.785 30.3203 120.389 30.381C119.997 30.4417 119.642 30.514 119.325 30.598C119.11 30.6587 118.902 30.745 118.702 30.857C118.501 30.9643 118.335 31.109 118.205 31.291C118.079 31.473 118.016 31.6993 118.016 31.97C118.016 32.1893 118.069 32.4017 118.177 32.607C118.289 32.8123 118.466 32.9827 118.709 33.118C118.956 33.2533 119.283 33.321 119.689 33.321ZM125.326 34V23.71H126.355V34H125.326ZM131.256 34V23.92H135.148C135.713 23.92 136.205 24.0367 136.625 24.27C137.045 24.5033 137.372 24.8183 137.605 25.215C137.839 25.607 137.955 26.041 137.955 26.517C137.955 27.0583 137.811 27.5413 137.521 27.966C137.232 28.386 136.845 28.6777 136.359 28.841L136.345 28.498C136.999 28.6847 137.512 29.0113 137.885 29.478C138.259 29.9447 138.445 30.5093 138.445 31.172C138.445 31.7553 138.322 32.2593 138.074 32.684C137.827 33.104 137.479 33.4283 137.031 33.657C136.583 33.8857 136.063 34 135.47 34H131.256ZM132.292 33.013H135.218C135.629 33.013 135.998 32.9407 136.324 32.796C136.651 32.6467 136.908 32.4367 137.094 32.166C137.286 31.8953 137.381 31.5687 137.381 31.186C137.381 30.8127 137.295 30.4767 137.122 30.178C136.95 29.8793 136.714 29.6413 136.415 29.464C136.121 29.282 135.785 29.191 135.407 29.191H132.292V33.013ZM132.292 28.218H135.141C135.463 28.218 135.757 28.1457 136.023 28.001C136.289 27.8517 136.499 27.6487 136.653 27.392C136.812 27.1353 136.891 26.839 136.891 26.503C136.891 26.027 136.726 25.6397 136.394 25.341C136.068 25.0423 135.65 24.893 135.141 24.893H132.292V28.218ZM142.005 34.21C141.436 34.21 140.958 34.1073 140.57 33.902C140.188 33.6967 139.901 33.4237 139.709 33.083C139.518 32.7423 139.422 32.3713 139.422 31.97C139.422 31.5593 139.504 31.2093 139.667 30.92C139.835 30.626 140.062 30.3857 140.346 30.199C140.636 30.0123 140.969 29.87 141.347 29.772C141.73 29.6787 142.152 29.597 142.614 29.527C143.081 29.4523 143.536 29.3893 143.979 29.338C144.427 29.282 144.819 29.2283 145.155 29.177L144.791 29.401C144.805 28.6543 144.661 28.1013 144.357 27.742C144.054 27.3827 143.527 27.203 142.775 27.203C142.257 27.203 141.819 27.3197 141.459 27.553C141.105 27.7863 140.855 28.155 140.71 28.659L139.709 28.365C139.882 27.6883 140.23 27.1633 140.752 26.79C141.275 26.4167 141.954 26.23 142.789 26.23C143.48 26.23 144.066 26.3607 144.546 26.622C145.032 26.8787 145.375 27.252 145.575 27.742C145.669 27.9613 145.729 28.2063 145.757 28.477C145.785 28.7477 145.799 29.023 145.799 29.303V34H144.882V32.103L145.148 32.215C144.892 32.8637 144.493 33.3583 143.951 33.699C143.41 34.0397 142.761 34.21 142.005 34.21ZM142.124 33.321C142.605 33.321 143.025 33.2347 143.384 33.062C143.744 32.8893 144.033 32.6537 144.252 32.355C144.472 32.0517 144.614 31.711 144.679 31.333C144.735 31.0903 144.766 30.8243 144.77 30.535C144.775 30.241 144.777 30.0217 144.777 29.877L145.169 30.08C144.819 30.1267 144.439 30.1733 144.028 30.22C143.622 30.2667 143.221 30.3203 142.824 30.381C142.432 30.4417 142.078 30.514 141.76 30.598C141.546 30.6587 141.338 30.745 141.137 30.857C140.937 30.9643 140.771 31.109 140.64 31.291C140.514 31.473 140.451 31.6993 140.451 31.97C140.451 32.1893 140.505 32.4017 140.612 32.607C140.724 32.8123 140.902 32.9827 141.144 33.118C141.392 33.2533 141.718 33.321 142.124 33.321ZM147.762 34V23.71H148.791V34H147.762ZM153.052 34.21C152.483 34.21 152.005 34.1073 151.617 33.902C151.235 33.6967 150.948 33.4237 150.756 33.083C150.565 32.7423 150.469 32.3713 150.469 31.97C150.469 31.5593 150.551 31.2093 150.714 30.92C150.882 30.626 151.109 30.3857 151.393 30.199C151.683 30.0123 152.016 29.87 152.394 29.772C152.777 29.6787 153.199 29.597 153.661 29.527C154.128 29.4523 154.583 29.3893 155.026 29.338C155.474 29.282 155.866 29.2283 156.202 29.177L155.838 29.401C155.852 28.6543 155.708 28.1013 155.404 27.742C155.101 27.3827 154.574 27.203 153.822 27.203C153.304 27.203 152.866 27.3197 152.506 27.553C152.152 27.7863 151.902 28.155 151.757 28.659L150.756 28.365C150.929 27.6883 151.277 27.1633 151.799 26.79C152.322 26.4167 153.001 26.23 153.836 26.23C154.527 26.23 155.113 26.3607 155.593 26.622C156.079 26.8787 156.422 27.252 156.622 27.742C156.716 27.9613 156.776 28.2063 156.804 28.477C156.832 28.7477 156.846 29.023 156.846 29.303V34H155.929V32.103L156.195 32.215C155.939 32.8637 155.54 33.3583 154.998 33.699C154.457 34.0397 153.808 34.21 153.052 34.21ZM153.171 33.321C153.652 33.321 154.072 33.2347 154.431 33.062C154.791 32.8893 155.08 32.6537 155.299 32.355C155.519 32.0517 155.661 31.711 155.726 31.333C155.782 31.0903 155.813 30.8243 155.817 30.535C155.822 30.241 155.824 30.0217 155.824 29.877L156.216 30.08C155.866 30.1267 155.486 30.1733 155.075 30.22C154.669 30.2667 154.268 30.3203 153.871 30.381C153.479 30.4417 153.125 30.514 152.807 30.598C152.593 30.6587 152.385 30.745 152.184 30.857C151.984 30.9643 151.818 31.109 151.687 31.291C151.561 31.473 151.498 31.6993 151.498 31.97C151.498 32.1893 151.552 32.4017 151.659 32.607C151.771 32.8123 151.949 32.9827 152.191 33.118C152.439 33.2533 152.765 33.321 153.171 33.321ZM164.128 34V30.143C164.128 29.723 164.089 29.338 164.009 28.988C163.93 28.6333 163.802 28.3253 163.624 28.064C163.452 27.798 163.225 27.5927 162.945 27.448C162.67 27.3033 162.334 27.231 161.937 27.231C161.573 27.231 161.251 27.294 160.971 27.42C160.696 27.546 160.463 27.728 160.271 27.966C160.085 28.1993 159.942 28.484 159.844 28.82C159.746 29.156 159.697 29.5387 159.697 29.968L158.969 29.807C158.969 29.0323 159.105 28.3813 159.375 27.854C159.646 27.3267 160.019 26.9277 160.495 26.657C160.971 26.3863 161.517 26.251 162.133 26.251C162.586 26.251 162.98 26.321 163.316 26.461C163.657 26.601 163.944 26.79 164.177 27.028C164.415 27.266 164.607 27.539 164.751 27.847C164.896 28.1503 165.001 28.4747 165.066 28.82C165.132 29.1607 165.164 29.5013 165.164 29.842V34H164.128ZM158.661 34V26.44H159.592V28.302H159.697V34H158.661ZM170.076 34.21C169.315 34.21 168.671 34.0397 168.144 33.699C167.617 33.3583 167.215 32.8893 166.94 32.292C166.669 31.69 166.529 30.9993 166.52 30.22C166.529 29.4267 166.674 28.7313 166.954 28.134C167.234 27.532 167.638 27.0653 168.165 26.734C168.692 26.398 169.332 26.23 170.083 26.23C170.848 26.23 171.513 26.4167 172.078 26.79C172.647 27.1633 173.037 27.6743 173.247 28.323L172.239 28.645C172.062 28.1923 171.779 27.8423 171.392 27.595C171.009 27.343 170.571 27.217 170.076 27.217C169.521 27.217 169.061 27.3453 168.697 27.602C168.333 27.854 168.062 28.2063 167.885 28.659C167.708 29.1117 167.617 29.632 167.612 30.22C167.621 31.1253 167.831 31.8533 168.242 32.404C168.653 32.95 169.264 33.223 170.076 33.223C170.589 33.223 171.026 33.1063 171.385 32.873C171.749 32.635 172.024 32.2897 172.211 31.837L173.247 32.145C172.967 32.817 172.556 33.3303 172.015 33.685C171.474 34.035 170.827 34.21 170.076 34.21ZM177.686 34.21C176.949 34.21 176.309 34.0467 175.768 33.72C175.231 33.3933 174.814 32.9337 174.515 32.341C174.216 31.7483 174.067 31.053 174.067 30.255C174.067 29.429 174.214 28.715 174.508 28.113C174.802 27.511 175.215 27.0467 175.747 26.72C176.284 26.3933 176.916 26.23 177.644 26.23C178.391 26.23 179.028 26.4027 179.555 26.748C180.082 27.0887 180.481 27.5787 180.752 28.218C181.023 28.8573 181.146 29.6203 181.123 30.507H180.073V30.143C180.054 29.163 179.842 28.4233 179.436 27.924C179.035 27.4247 178.447 27.175 177.672 27.175C176.86 27.175 176.237 27.4387 175.803 27.966C175.374 28.4933 175.159 29.2447 175.159 30.22C175.159 31.172 175.374 31.9117 175.803 32.439C176.237 32.9617 176.851 33.223 177.644 33.223C178.185 33.223 178.657 33.0993 179.058 32.852C179.464 32.6 179.784 32.2383 180.017 31.767L180.976 32.138C180.677 32.796 180.236 33.307 179.653 33.671C179.074 34.0303 178.419 34.21 177.686 34.21ZM174.795 30.507V29.646H180.57V30.507H174.795Z" fill="black"/>
<path d="M100.136 62.592V60.696H102.064V62.592H100.136ZM100.136 49.792V47.896H102.064V49.792H100.136ZM101.144 61.24C100.333 61.24 99.608 61.0907 98.968 60.792C98.328 60.4933 97.8027 60.072 97.392 59.528C96.9867 58.984 96.728 58.3387 96.616 57.592L98.52 57.288C98.6693 57.944 98.9893 58.4667 99.48 58.856C99.976 59.24 100.568 59.432 101.256 59.432C101.917 59.432 102.461 59.2773 102.888 58.968C103.315 58.6533 103.528 58.256 103.528 57.776C103.528 57.44 103.427 57.168 103.224 56.96C103.021 56.7467 102.696 56.5707 102.248 56.432L99.472 55.568C97.856 55.0667 97.048 54.0853 97.048 52.624C97.048 51.9413 97.2107 51.3467 97.536 50.84C97.8667 50.328 98.3307 49.936 98.928 49.664C99.5253 49.3867 100.229 49.2507 101.04 49.256C101.792 49.2613 102.461 49.3973 103.048 49.664C103.64 49.9307 104.131 50.3147 104.52 50.816C104.915 51.3173 105.195 51.92 105.36 52.624L103.384 52.984C103.309 52.6053 103.163 52.272 102.944 51.984C102.725 51.696 102.451 51.472 102.12 51.312C101.789 51.152 101.421 51.0667 101.016 51.056C100.627 51.0507 100.277 51.112 99.968 51.24C99.6587 51.3627 99.4133 51.5387 99.232 51.768C99.0507 51.992 98.96 52.2453 98.96 52.528C98.96 52.8427 99.0853 53.112 99.336 53.336C99.592 53.56 99.9947 53.752 100.544 53.912L102.616 54.512C103.613 54.8 104.331 55.192 104.768 55.688C105.211 56.1787 105.432 56.832 105.432 57.648C105.432 58.3627 105.253 58.9893 104.896 59.528C104.539 60.0667 104.037 60.488 103.392 60.792C102.747 61.0907 101.997 61.24 101.144 61.24ZM111.951 61V59.096H106.847V57.296L110.535 49.48H112.735L109.047 57.296H111.951V54.296H113.903V57.296H114.983V59.096H113.903V61H111.951ZM116.429 63.04L116.541 62.208C116.786 62.2293 116.981 62.1867 117.125 62.08C117.269 61.9787 117.365 61.832 117.413 61.64C117.466 61.4533 117.479 61.24 117.453 61H116.429V58.944H118.405V61.08C118.405 61.7787 118.239 62.3067 117.909 62.664C117.578 63.0213 117.085 63.1467 116.429 63.04ZM121.128 60.984V59.304L126.056 54.912C126.44 54.5707 126.707 54.248 126.856 53.944C127.005 53.64 127.08 53.3467 127.08 53.064C127.08 52.68 126.997 52.3387 126.832 52.04C126.667 51.736 126.437 51.496 126.144 51.32C125.856 51.144 125.523 51.056 125.144 51.056C124.744 51.056 124.389 51.1493 124.08 51.336C123.776 51.5173 123.539 51.76 123.368 52.064C123.197 52.368 123.117 52.696 123.128 53.048H121.144C121.144 52.28 121.315 51.6107 121.656 51.04C122.003 50.4693 122.477 50.0267 123.08 49.712C123.688 49.3973 124.389 49.24 125.184 49.24C125.92 49.24 126.581 49.4053 127.168 49.736C127.755 50.0613 128.216 50.5147 128.552 51.096C128.888 51.672 129.056 52.336 129.056 53.088C129.056 53.6373 128.981 54.0987 128.832 54.472C128.683 54.8453 128.459 55.1893 128.16 55.504C127.867 55.8187 127.501 56.168 127.064 56.552L123.568 59.648L123.392 59.168H129.056V60.984H121.128ZM135.123 61.24C134.307 61.24 133.587 61.0667 132.963 60.72C132.339 60.368 131.851 59.88 131.499 59.256C131.153 58.632 130.979 57.912 130.979 57.096V53.384C130.979 52.568 131.153 51.848 131.499 51.224C131.851 50.6 132.339 50.1147 132.963 49.768C133.587 49.416 134.307 49.24 135.123 49.24C135.939 49.24 136.657 49.416 137.275 49.768C137.899 50.1147 138.387 50.6 138.739 51.224C139.091 51.848 139.267 52.568 139.267 53.384V57.096C139.267 57.912 139.091 58.632 138.739 59.256C138.387 59.88 137.899 60.368 137.275 60.72C136.657 61.0667 135.939 61.24 135.123 61.24ZM135.123 59.408C135.529 59.408 135.897 59.312 136.227 59.12C136.558 58.9227 136.819 58.6613 137.011 58.336C137.203 58.0053 137.299 57.6373 137.299 57.232V53.24C137.299 52.8293 137.203 52.4613 137.011 52.136C136.819 51.8053 136.558 51.544 136.227 51.352C135.897 51.1547 135.529 51.056 135.123 51.056C134.718 51.056 134.35 51.1547 134.019 51.352C133.689 51.544 133.427 51.8053 133.235 52.136C133.043 52.4613 132.947 52.8293 132.947 53.24V57.232C132.947 57.6373 133.043 58.0053 133.235 58.336C133.427 58.6613 133.689 58.9227 134.019 59.12C134.35 59.312 134.718 59.408 135.123 59.408ZM145.655 61.24C144.839 61.24 144.119 61.0667 143.495 60.72C142.871 60.368 142.383 59.88 142.031 59.256C141.684 58.632 141.511 57.912 141.511 57.096V53.384C141.511 52.568 141.684 51.848 142.031 51.224C142.383 50.6 142.871 50.1147 143.495 49.768C144.119 49.416 144.839 49.24 145.655 49.24C146.471 49.24 147.188 49.416 147.807 49.768C148.431 50.1147 148.919 50.6 149.271 51.224C149.623 51.848 149.799 52.568 149.799 53.384V57.096C149.799 57.912 149.623 58.632 149.271 59.256C148.919 59.88 148.431 60.368 147.807 60.72C147.188 61.0667 146.471 61.24 145.655 61.24ZM145.655 59.408C146.06 59.408 146.428 59.312 146.759 59.12C147.089 58.9227 147.351 58.6613 147.543 58.336C147.735 58.0053 147.831 57.6373 147.831 57.232V53.24C147.831 52.8293 147.735 52.4613 147.543 52.136C147.351 51.8053 147.089 51.544 146.759 51.352C146.428 51.1547 146.06 51.056 145.655 51.056C145.249 51.056 144.881 51.1547 144.551 51.352C144.22 51.544 143.959 51.8053 143.767 52.136C143.575 52.4613 143.479 52.8293 143.479 53.24V57.232C143.479 57.6373 143.575 58.0053 143.767 58.336C143.959 58.6613 144.22 58.9227 144.551 59.12C144.881 59.312 145.249 59.408 145.655 59.408Z" fill="black"/>
<path d="M160.435 51.787V53.113H158.238V55.31H156.912V53.113H154.715V51.787H156.912V49.59H158.238V51.787H160.435ZM163.708 47.9H165.008V57H163.513V49.499L161.68 50.019L161.316 48.745L163.708 47.9ZM173.303 53.971V55.362H172.263V57H170.755V55.362H166.283V53.971L169.416 47.9H171.041L167.908 53.971H170.755V51.605H172.263V53.971H173.303ZM177.168 51.293C176.769 51.6917 176.267 51.891 175.66 51.891C175.053 51.891 174.546 51.6917 174.139 51.293C173.732 50.8857 173.528 50.3917 173.528 49.811C173.528 49.2303 173.732 48.7407 174.139 48.342C174.546 47.9347 175.053 47.731 175.66 47.731C176.267 47.731 176.769 47.9303 177.168 48.329C177.575 48.7277 177.779 49.2217 177.779 49.811C177.779 50.3917 177.575 50.8857 177.168 51.293ZM175.647 50.747C175.924 50.747 176.15 50.656 176.323 50.474C176.496 50.292 176.583 50.071 176.583 49.811C176.583 49.5423 176.496 49.317 176.323 49.135C176.15 48.953 175.924 48.862 175.647 48.862C175.378 48.862 175.157 48.953 174.984 49.135C174.811 49.317 174.724 49.5423 174.724 49.811C174.724 50.071 174.811 50.292 174.984 50.474C175.157 50.656 175.378 50.747 175.647 50.747ZM174.295 55.661L180.288 48.992L180.99 49.395L174.997 56.077L174.295 55.661ZM179.82 57.156C179.213 57.156 178.706 56.9567 178.299 56.558C177.892 56.1507 177.688 55.6567 177.688 55.076C177.688 54.4953 177.892 54.0057 178.299 53.607C178.706 53.1997 179.213 52.996 179.82 52.996C180.418 52.996 180.921 53.1997 181.328 53.607C181.735 54.0057 181.939 54.4953 181.939 55.076C181.939 55.6567 181.735 56.1507 181.328 56.558C180.921 56.9567 180.418 57.156 179.82 57.156ZM179.807 56.012C180.084 56.012 180.31 55.921 180.483 55.739C180.656 55.557 180.743 55.336 180.743 55.076C180.743 54.8073 180.656 54.582 180.483 54.4C180.31 54.218 180.084 54.127 179.807 54.127C179.538 54.127 179.317 54.218 179.144 54.4C178.971 54.582 178.884 54.8073 178.884 55.076C178.884 55.336 178.971 55.557 179.144 55.739C179.317 55.921 179.538 56.012 179.807 56.012Z" fill="#00E1F0"/>
<path d="M96.4432 74.4H97.2432V80H96.3232V75.384L95.1952 75.704L94.9712 74.92L96.4432 74.4ZM101.98 79.312C101.596 79.84 101.057 80.104 100.364 80.104C99.6704 80.104 99.1291 79.84 98.7398 79.312C98.3558 78.784 98.1638 78.08 98.1638 77.2C98.1638 76.32 98.3558 75.616 98.7398 75.088C99.1291 74.56 99.6704 74.296 100.364 74.296C101.057 74.296 101.596 74.56 101.98 75.088C102.369 75.616 102.564 76.32 102.564 77.2C102.564 78.08 102.369 78.784 101.98 79.312ZM100.364 79.208C100.78 79.208 101.097 79.0347 101.316 78.688C101.534 78.3413 101.644 77.8453 101.644 77.2C101.644 76.5547 101.534 76.0587 101.316 75.712C101.097 75.3653 100.78 75.192 100.364 75.192C99.9531 75.192 99.6358 75.3653 99.4118 75.712C99.1931 76.0587 99.0838 76.5547 99.0838 77.2C99.0838 77.8453 99.1931 78.3413 99.4118 78.688C99.6358 79.0347 99.9531 79.208 100.364 79.208ZM106.923 80H105.891L104.251 78.152V80H103.387V74.4H104.251V77.768L105.803 76H106.859L105.099 77.96L106.923 80Z" fill="#718EBF"/>
<path d="M102.746 97.136V97.992H102.106V99H101.178V97.992H98.4262V97.136L100.354 93.4H101.354L99.4262 97.136H101.178V95.68H102.106V97.136H102.746ZM106.923 99H105.891L104.251 97.152V99H103.387V93.4H104.251V96.768L105.803 95H106.859L105.099 96.96L106.923 99Z" fill="#718EBF"/>
<path d="M98.8964 118V117.28L100.848 115.288C101.323 114.813 101.56 114.403 101.56 114.056C101.56 113.784 101.478 113.573 101.312 113.424C101.152 113.269 100.947 113.192 100.696 113.192C100.227 113.192 99.8804 113.424 99.6564 113.888L98.8804 113.432C99.0564 113.059 99.3044 112.776 99.6244 112.584C99.9444 112.392 100.299 112.296 100.688 112.296C101.179 112.296 101.6 112.451 101.952 112.76C102.304 113.069 102.48 113.491 102.48 114.024C102.48 114.595 102.163 115.203 101.528 115.848L100.264 117.112H102.584V118H98.8964ZM106.923 118H105.891L104.251 116.152V118H103.387V112.4H104.251V115.768L105.803 114H106.859L105.099 115.96L106.923 118Z" fill="#718EBF"/>
<path d="M106.097 137.312C105.713 137.84 105.174 138.104 104.481 138.104C103.788 138.104 103.246 137.84 102.857 137.312C102.473 136.784 102.281 136.08 102.281 135.2C102.281 134.32 102.473 133.616 102.857 133.088C103.246 132.56 103.788 132.296 104.481 132.296C105.174 132.296 105.713 132.56 106.097 133.088C106.486 133.616 106.681 134.32 106.681 135.2C106.681 136.08 106.486 136.784 106.097 137.312ZM104.481 137.208C104.897 137.208 105.214 137.035 105.433 136.688C105.652 136.341 105.761 135.845 105.761 135.2C105.761 134.555 105.652 134.059 105.433 133.712C105.214 133.365 104.897 133.192 104.481 133.192C104.07 133.192 103.753 133.365 103.529 133.712C103.31 134.059 103.201 134.555 103.201 135.2C103.201 135.845 103.31 136.341 103.529 136.688C103.753 137.035 104.07 137.208 104.481 137.208Z" fill="#718EBF"/>
<path d="M125.6 150.104C125.061 150.104 124.602 149.981 124.224 149.736C123.85 149.491 123.589 149.155 123.44 148.728L124.232 148.264C124.456 148.893 124.92 149.208 125.624 149.208C125.97 149.208 126.229 149.141 126.4 149.008C126.576 148.869 126.664 148.691 126.664 148.472C126.664 148.243 126.57 148.069 126.384 147.952C126.197 147.829 125.866 147.696 125.392 147.552C125.125 147.472 124.909 147.397 124.744 147.328C124.578 147.259 124.402 147.163 124.216 147.04C124.034 146.912 123.898 146.755 123.808 146.568C123.717 146.381 123.672 146.163 123.672 145.912C123.672 145.416 123.848 145.024 124.2 144.736C124.552 144.443 124.976 144.296 125.472 144.296C125.92 144.296 126.312 144.405 126.648 144.624C126.984 144.843 127.242 145.144 127.424 145.528L126.648 145.976C126.413 145.453 126.021 145.192 125.472 145.192C125.205 145.192 124.992 145.256 124.832 145.384C124.672 145.507 124.592 145.675 124.592 145.888C124.592 146.096 124.672 146.261 124.832 146.384C124.997 146.501 125.293 146.627 125.72 146.76C125.933 146.829 126.088 146.883 126.184 146.92C126.285 146.952 126.424 147.005 126.6 147.08C126.781 147.155 126.917 147.229 127.008 147.304C127.098 147.379 127.194 147.472 127.296 147.584C127.402 147.696 127.477 147.824 127.52 147.968C127.562 148.112 127.584 148.275 127.584 148.456C127.584 148.963 127.4 149.365 127.032 149.664C126.669 149.957 126.192 150.104 125.6 150.104Z" fill="#718EBF"/>
<path d="M115 131C115 129.343 116.343 128 118 128H132C133.657 128 135 129.343 135 131V140H115V131Z" fill="#E8F2FF"/>
<path d="M152.182 144.4V150H151.262V146.008L149.558 148.824H149.446L147.742 146V150H146.822V144.4H147.814L149.502 147.2L151.198 144.4H152.182Z" fill="#718EBF"/>
<path d="M139 125C139 123.343 140.343 122 142 122H156C157.657 122 159 123.343 159 125V140H139V125Z" fill="#E8F2FF"/>
<path d="M175.54 144.4V145.28H173.964V150H173.044V145.28H171.46V144.4H175.54Z" fill="#718EBF"/>
<path d="M163 101C163 99.3431 164.343 98 166 98H180C181.657 98 183 99.3431 183 101V140H163V101Z" fill="#E8F2FF"/>
<path d="M194.748 150L193.164 144.4H194.132L195.308 148.776L196.58 144.4H197.428L198.692 148.776L199.868 144.4H200.836L199.252 150H198.188L197.004 145.912L195.812 150H194.748Z" fill="#718EBF"/>
<path d="M187 112C187 110.343 188.343 109 190 109H204C205.657 109 207 110.343 207 112V140H187V112Z" fill="#3734A9"/>
<path d="M223.54 144.4V145.28H221.964V150H221.044V145.28H219.46V144.4H223.54Z" fill="#718EBF"/>
<path d="M211 84C211 82.3431 212.343 81 214 81H228C229.657 81 231 82.3431 231 84V140H211V84Z" fill="#3734A9"/>
<path d="M248.27 145.28H245.91V146.848H248.19V147.728H245.91V150H244.99V144.4H248.27V145.28Z" fill="#718EBF"/>
<path d="M235 131C235 129.343 236.343 128 238 128H252C253.657 128 255 129.343 255 131V140H235V131Z" fill="#E8F2FF"/>
<path d="M269.6 150.104C269.061 150.104 268.602 149.981 268.224 149.736C267.85 149.491 267.589 149.155 267.44 148.728L268.232 148.264C268.456 148.893 268.92 149.208 269.624 149.208C269.97 149.208 270.229 149.141 270.4 149.008C270.576 148.869 270.664 148.691 270.664 148.472C270.664 148.243 270.57 148.069 270.384 147.952C270.197 147.829 269.866 147.696 269.392 147.552C269.125 147.472 268.909 147.397 268.744 147.328C268.578 147.259 268.402 147.163 268.216 147.04C268.034 146.912 267.898 146.755 267.808 146.568C267.717 146.381 267.672 146.163 267.672 145.912C267.672 145.416 267.848 145.024 268.2 144.736C268.552 144.443 268.976 144.296 269.472 144.296C269.92 144.296 270.312 144.405 270.648 144.624C270.984 144.843 271.242 145.144 271.424 145.528L270.648 145.976C270.413 145.453 270.021 145.192 269.472 145.192C269.205 145.192 268.992 145.256 268.832 145.384C268.672 145.507 268.592 145.675 268.592 145.888C268.592 146.096 268.672 146.261 268.832 146.384C268.997 146.501 269.293 146.627 269.72 146.76C269.933 146.829 270.088 146.883 270.184 146.92C270.285 146.952 270.424 147.005 270.6 147.08C270.781 147.155 270.917 147.229 271.008 147.304C271.098 147.379 271.194 147.472 271.296 147.584C271.402 147.696 271.477 147.824 271.52 147.968C271.562 148.112 271.584 148.275 271.584 148.456C271.584 148.963 271.4 149.365 271.032 149.664C270.669 149.957 270.192 150.104 269.6 150.104Z" fill="#718EBF"/>
<path d="M259 112C259 110.343 260.343 109 262 109H276C277.657 109 279 110.343 279 112V140H259V112Z" fill="#3734A9"/>
<path d="M294.6 150.104C294.061 150.104 293.602 149.981 293.224 149.736C292.85 149.491 292.589 149.155 292.44 148.728L293.232 148.264C293.456 148.893 293.92 149.208 294.624 149.208C294.97 149.208 295.229 149.141 295.4 149.008C295.576 148.869 295.664 148.691 295.664 148.472C295.664 148.243 295.57 148.069 295.384 147.952C295.197 147.829 294.866 147.696 294.392 147.552C294.125 147.472 293.909 147.397 293.744 147.328C293.578 147.259 293.402 147.163 293.216 147.04C293.034 146.912 292.898 146.755 292.808 146.568C292.717 146.381 292.672 146.163 292.672 145.912C292.672 145.416 292.848 145.024 293.2 144.736C293.552 144.443 293.976 144.296 294.472 144.296C294.92 144.296 295.312 144.405 295.648 144.624C295.984 144.843 296.242 145.144 296.424 145.528L295.648 145.976C295.413 145.453 295.021 145.192 294.472 145.192C294.205 145.192 293.992 145.256 293.832 145.384C293.672 145.507 293.592 145.675 293.592 145.888C293.592 146.096 293.672 146.261 293.832 146.384C293.997 146.501 294.293 146.627 294.72 146.76C294.933 146.829 295.088 146.883 295.184 146.92C295.285 146.952 295.424 147.005 295.6 147.08C295.781 147.155 295.917 147.229 296.008 147.304C296.098 147.379 296.194 147.472 296.296 147.584C296.402 147.696 296.477 147.824 296.52 147.968C296.562 148.112 296.584 148.275 296.584 148.456C296.584 148.963 296.4 149.365 296.032 149.664C295.669 149.957 295.192 150.104 294.6 150.104Z" fill="#718EBF"/>
<path d="M283 97C283 95.3431 284.343 94 286 94H300C301.657 94 303 95.3431 303 97V140H283V97Z" fill="#3734A9"/>
<defs>
<filter id="filter0_dddddd_1_997" x="0" y="0.703704" width="403" height="349.296" filterUnits="userSpaceOnUse" color-interpolation-filters="sRGB">
<feFlood flood-opacity="0" result="BackgroundImageFix"/>
<feColorMatrix in="SourceAlpha" type="matrix" values="0 0 0 0 0 0 0 0 0 0 0 0 0 0 0 0 0 0 127 0" result="hardAlpha"/>
<feOffset dy="1.85185"/>
<feGaussianBlur stdDeviation="1.57407"/>
<feColorMatrix type="matrix" values="0 0 0 0 0 0 0 0 0 0 0 0 0 0 0 0 0 0 0.01 0"/>
<feBlend mode="normal" in2="BackgroundImageFix" result="effect1_dropShadow_1_997"/>
<feColorMatrix in="SourceAlpha" type="matrix" values="0 0 0 0 0 0 0 0 0 0 0 0 0 0 0 0 0 0 127 0" result="hardAlpha"/>
<feOffset dy="8.14815"/>
<feGaussianBlur stdDeviation="3.25926"/>
<feColorMatrix type="matrix" values="0 0 0 0 0 0 0 0 0 0 0 0 0 0 0 0 0 0 0.0117778 0"/>
<feBlend mode="normal" in2="effect1_dropShadow_1_997" result="effect2_dropShadow_1_997"/>
<feColorMatrix in="SourceAlpha" type="matrix" values="0 0 0 0 0 0 0 0 0 0 0 0 0 0 0 0 0 0 127 0" result="hardAlpha"/>
<feOffset dy="20"/>
<feGaussianBlur stdDeviation="6.5"/>
<feColorMatrix type="matrix" values="0 0 0 0 0 0 0 0 0 0 0 0 0 0 0 0 0 0 0.015 0"/>
<feBlend mode="normal" in2="effect2_dropShadow_1_997" result="effect3_dropShadow_1_997"/>
<feColorMatrix in="SourceAlpha" type="matrix" values="0 0 0 0 0 0 0 0 0 0 0 0 0 0 0 0 0 0 127 0" result="hardAlpha"/>
<feOffset dy="38.5185"/>
<feGaussianBlur stdDeviation="12.7407"/>
<feColorMatrix type="matrix" values="0 0 0 0 0 0 0 0 0 0 0 0 0 0 0 0 0 0 0.0182222 0"/>
<feBlend mode="normal" in2="effect3_dropShadow_1_997" result="effect4_dropShadow_1_997"/>
<feColorMatrix in="SourceAlpha" type="matrix" values="0 0 0 0 0 0 0 0 0 0 0 0 0 0 0 0 0 0 127 0" result="hardAlpha"/>
<feOffset dy="64.8148"/>
<feGaussianBlur stdDeviation="23.4259"/>
<feColorMatrix type="matrix" values="0 0 0 0 0 0 0 0 0 0 0 0 0 0 0 0 0 0 0.0227778 0"/>
<feBlend mode="normal" in2="effect4_dropShadow_1_997" result="effect5_dropShadow_1_997"/>
<feColorMatrix in="SourceAlpha" type="matrix" values="0 0 0 0 0 0 0 0 0 0 0 0 0 0 0 0 0 0 127 0" result="hardAlpha"/>
<feOffset dy="100"/>
<feGaussianBlur stdDeviation="40"/>
<feColorMatrix type="matrix" values="0 0 0 0 0 0 0 0 0 0 0 0 0 0 0 0 0 0 0.03 0"/>
<feBlend mode="normal" in2="effect5_dropShadow_1_997" result="effect6_dropShadow_1_997"/>
<feBlend mode="normal" in="SourceGraphic" in2="effect6_dropShadow_1_997" result="shape"/>
</filter>
</defs>
</svg>
