<svg width="356" height="294" viewBox="0 0 356 294" fill="none" xmlns="http://www.w3.org/2000/svg">
<g filter="url(#filter0_dddddd_1_1034)">
<rect x="80" y="2" width="196" height="112" rx="10" fill="white"/>
</g>
<circle cx="102" cy="27" r="8" fill="#00E1F0"/>
<path d="M118.98 34V23.92H122.872C122.97 23.92 123.08 23.9247 123.201 23.934C123.327 23.9387 123.453 23.9527 123.579 23.976C124.106 24.0553 124.552 24.2397 124.916 24.529C125.285 24.8137 125.562 25.173 125.749 25.607C125.94 26.041 126.036 26.5217 126.036 27.049C126.036 27.8097 125.835 28.47 125.434 29.03C125.033 29.59 124.459 29.9423 123.712 30.087L123.355 30.171H120.009V34H118.98ZM125.084 34L123.096 29.898L124.083 29.52L126.267 34H125.084ZM120.009 29.191H122.844C122.928 29.191 123.026 29.1863 123.138 29.177C123.25 29.1677 123.36 29.1513 123.467 29.128C123.812 29.0533 124.095 28.911 124.314 28.701C124.538 28.491 124.704 28.2413 124.811 27.952C124.923 27.6627 124.979 27.3617 124.979 27.049C124.979 26.7363 124.923 26.4353 124.811 26.146C124.704 25.852 124.538 25.6 124.314 25.39C124.095 25.18 123.812 25.0377 123.467 24.963C123.36 24.9397 123.25 24.9257 123.138 24.921C123.026 24.9117 122.928 24.907 122.844 24.907H120.009V29.191ZM131.011 34.21C130.274 34.21 129.634 34.0467 129.093 33.72C128.556 33.3933 128.139 32.9337 127.84 32.341C127.541 31.7483 127.392 31.053 127.392 30.255C127.392 29.429 127.539 28.715 127.833 28.113C128.127 27.511 128.54 27.0467 129.072 26.72C129.609 26.3933 130.241 26.23 130.969 26.23C131.716 26.23 132.353 26.4027 132.88 26.748C133.407 27.0887 133.806 27.5787 134.077 28.218C134.348 28.8573 134.471 29.6203 134.448 30.507H133.398V30.143C133.379 29.163 133.167 28.4233 132.761 27.924C132.36 27.4247 131.772 27.175 130.997 27.175C130.185 27.175 129.562 27.4387 129.128 27.966C128.699 28.4933 128.484 29.2447 128.484 30.22C128.484 31.172 128.699 31.9117 129.128 32.439C129.562 32.9617 130.176 33.223 130.969 33.223C131.51 33.223 131.982 33.0993 132.383 32.852C132.789 32.6 133.109 32.2383 133.342 31.767L134.301 32.138C134.002 32.796 133.561 33.307 132.978 33.671C132.399 34.0303 131.744 34.21 131.011 34.21ZM128.12 30.507V29.646H133.895V30.507H128.12ZM137.772 34L135.028 26.44H136.071L138.304 32.656L140.523 26.44H141.58L138.836 34H137.772ZM145.763 34.21C145.026 34.21 144.386 34.0467 143.845 33.72C143.308 33.3933 142.891 32.9337 142.592 32.341C142.293 31.7483 142.144 31.053 142.144 30.255C142.144 29.429 142.291 28.715 142.585 28.113C142.879 27.511 143.292 27.0467 143.824 26.72C144.361 26.3933 144.993 26.23 145.721 26.23C146.468 26.23 147.105 26.4027 147.632 26.748C148.159 27.0887 148.558 27.5787 148.829 28.218C149.1 28.8573 149.223 29.6203 149.2 30.507H148.15V30.143C148.131 29.163 147.919 28.4233 147.513 27.924C147.112 27.4247 146.524 27.175 145.749 27.175C144.937 27.175 144.314 27.4387 143.88 27.966C143.451 28.4933 143.236 29.2447 143.236 30.22C143.236 31.172 143.451 31.9117 143.88 32.439C144.314 32.9617 144.928 33.223 145.721 33.223C146.262 33.223 146.734 33.0993 147.135 32.852C147.541 32.6 147.861 32.2383 148.094 31.767L149.053 32.138C148.754 32.796 148.313 33.307 147.73 33.671C147.151 34.0303 146.496 34.21 145.763 34.21ZM142.872 30.507V29.646H148.647V30.507H142.872ZM156.008 34V30.143C156.008 29.723 155.969 29.338 155.889 28.988C155.81 28.6333 155.682 28.3253 155.504 28.064C155.332 27.798 155.105 27.5927 154.825 27.448C154.55 27.3033 154.214 27.231 153.817 27.231C153.453 27.231 153.131 27.294 152.851 27.42C152.576 27.546 152.343 27.728 152.151 27.966C151.965 28.1993 151.822 28.484 151.724 28.82C151.626 29.156 151.577 29.5387 151.577 29.968L150.849 29.807C150.849 29.0323 150.985 28.3813 151.255 27.854C151.526 27.3267 151.899 26.9277 152.375 26.657C152.851 26.3863 153.397 26.251 154.013 26.251C154.466 26.251 154.86 26.321 155.196 26.461C155.537 26.601 155.824 26.79 156.057 27.028C156.295 27.266 156.487 27.539 156.631 27.847C156.776 28.1503 156.881 28.4747 156.946 28.82C157.012 29.1607 157.044 29.5013 157.044 29.842V34H156.008ZM150.541 34V26.44H151.472V28.302H151.577V34H150.541ZM161.752 34.189C161.299 34.189 160.903 34.119 160.562 33.979C160.226 33.839 159.939 33.65 159.701 33.412C159.468 33.174 159.279 32.9033 159.134 32.6C158.989 32.292 158.884 31.9677 158.819 31.627C158.754 31.2817 158.721 30.9387 158.721 30.598V26.44H159.757V30.297C159.757 30.7123 159.797 31.0973 159.876 31.452C159.955 31.8067 160.081 32.117 160.254 32.383C160.431 32.6443 160.658 32.8473 160.933 32.992C161.213 33.1367 161.551 33.209 161.948 33.209C162.312 33.209 162.632 33.146 162.907 33.02C163.187 32.894 163.42 32.7143 163.607 32.481C163.798 32.243 163.943 31.956 164.041 31.62C164.139 31.2793 164.188 30.8967 164.188 30.472L164.916 30.633C164.916 31.4077 164.781 32.0587 164.51 32.586C164.239 33.1133 163.866 33.5123 163.39 33.783C162.914 34.0537 162.368 34.189 161.752 34.189ZM164.293 34V32.138H164.188V26.44H165.217V34H164.293ZM170.372 34.21C169.635 34.21 168.996 34.0467 168.454 33.72C167.918 33.3933 167.5 32.9337 167.201 32.341C166.903 31.7483 166.753 31.053 166.753 30.255C166.753 29.429 166.9 28.715 167.194 28.113C167.488 27.511 167.901 27.0467 168.433 26.72C168.97 26.3933 169.602 26.23 170.33 26.23C171.077 26.23 171.714 26.4027 172.241 26.748C172.769 27.0887 173.168 27.5787 173.438 28.218C173.709 28.8573 173.833 29.6203 173.809 30.507H172.759V30.143C172.741 29.163 172.528 28.4233 172.122 27.924C171.721 27.4247 171.133 27.175 170.358 27.175C169.546 27.175 168.923 27.4387 168.489 27.966C168.06 28.4933 167.845 29.2447 167.845 30.22C167.845 31.172 168.06 31.9117 168.489 32.439C168.923 32.9617 169.537 33.223 170.33 33.223C170.872 33.223 171.343 33.0993 171.744 32.852C172.15 32.6 172.47 32.2383 172.703 31.767L173.662 32.138C173.364 32.796 172.923 33.307 172.339 33.671C171.761 34.0303 171.105 34.21 170.372 34.21ZM167.481 30.507V29.646H173.256V30.507H167.481Z" fill="black"/>
<path d="M98.136 72.592V70.696H100.064V72.592H98.136ZM98.136 59.792V57.896H100.064V59.792H98.136ZM99.144 71.24C98.3333 71.24 97.608 71.0907 96.968 70.792C96.328 70.4933 95.8027 70.072 95.392 69.528C94.9867 68.984 94.728 68.3387 94.616 67.592L96.52 67.288C96.6693 67.944 96.9893 68.4667 97.48 68.856C97.976 69.24 98.568 69.432 99.256 69.432C99.9173 69.432 100.461 69.2773 100.888 68.968C101.315 68.6533 101.528 68.256 101.528 67.776C101.528 67.44 101.427 67.168 101.224 66.96C101.021 66.7467 100.696 66.5707 100.248 66.432L97.472 65.568C95.856 65.0667 95.048 64.0853 95.048 62.624C95.048 61.9413 95.2107 61.3467 95.536 60.84C95.8667 60.328 96.3307 59.936 96.928 59.664C97.5253 59.3867 98.2293 59.2507 99.04 59.256C99.792 59.2613 100.461 59.3973 101.048 59.664C101.64 59.9307 102.131 60.3147 102.52 60.816C102.915 61.3173 103.195 61.92 103.36 62.624L101.384 62.984C101.309 62.6053 101.163 62.272 100.944 61.984C100.725 61.696 100.451 61.472 100.12 61.312C99.7893 61.152 99.4213 61.0667 99.016 61.056C98.6267 61.0507 98.2773 61.112 97.968 61.24C97.6587 61.3627 97.4133 61.5387 97.232 61.768C97.0507 61.992 96.96 62.2453 96.96 62.528C96.96 62.8427 97.0853 63.112 97.336 63.336C97.592 63.56 97.9947 63.752 98.544 63.912L100.616 64.512C101.613 64.8 102.331 65.192 102.768 65.688C103.211 66.1787 103.432 66.832 103.432 67.648C103.432 68.3627 103.253 68.9893 102.896 69.528C102.539 70.0667 102.037 70.488 101.392 70.792C100.747 71.0907 99.9973 71.24 99.144 71.24ZM108.463 71.216C107.887 71.216 107.343 71.104 106.831 70.88C106.319 70.656 105.874 70.3387 105.495 69.928C105.122 69.5173 104.852 69.032 104.687 68.472L106.551 67.968C106.684 68.4267 106.927 68.7813 107.279 69.032C107.636 69.2773 108.028 69.3973 108.455 69.392C108.834 69.392 109.172 69.304 109.471 69.128C109.77 68.952 110.004 68.7147 110.175 68.416C110.346 68.112 110.431 67.7733 110.431 67.4C110.431 66.8293 110.247 66.352 109.879 65.968C109.511 65.584 109.036 65.392 108.455 65.392C108.279 65.392 108.106 65.416 107.935 65.464C107.77 65.512 107.61 65.5787 107.455 65.664L106.575 64.144L110.447 60.832L110.615 61.296H105.135V59.48H112.199V61.304L109.087 64.296L109.071 63.728C109.77 63.776 110.364 63.9707 110.855 64.312C111.351 64.6533 111.73 65.0933 111.991 65.632C112.258 66.1707 112.391 66.76 112.391 67.4C112.391 68.1253 112.212 68.776 111.855 69.352C111.503 69.928 111.028 70.384 110.431 70.72C109.839 71.0507 109.183 71.216 108.463 71.216ZM118.448 71.24C117.696 71.24 117.018 71.064 116.416 70.712C115.818 70.3547 115.344 69.8613 114.992 69.232C114.64 68.6027 114.464 67.88 114.464 67.064V63.56C114.464 62.6853 114.637 61.9253 114.984 61.28C115.336 60.6347 115.826 60.136 116.456 59.784C117.09 59.432 117.826 59.256 118.664 59.256C119.245 59.256 119.797 59.3547 120.32 59.552C120.842 59.744 121.306 60.0533 121.712 60.48L120.32 61.832C120.117 61.592 119.869 61.4027 119.576 61.264C119.288 61.1253 118.984 61.056 118.664 61.056C118.216 61.056 117.824 61.1627 117.488 61.376C117.152 61.584 116.89 61.8587 116.704 62.2C116.522 62.5413 116.432 62.9067 116.432 63.296V65.208L116.08 64.824C116.41 64.44 116.808 64.1413 117.272 63.928C117.736 63.7093 118.221 63.6 118.728 63.6C119.453 63.6 120.093 63.7653 120.648 64.096C121.202 64.4213 121.64 64.8693 121.96 65.44C122.28 66.0053 122.44 66.6507 122.44 67.376C122.44 68.096 122.256 68.7493 121.888 69.336C121.525 69.9173 121.042 70.3813 120.44 70.728C119.837 71.0693 119.173 71.24 118.448 71.24ZM118.448 69.392C118.821 69.392 119.162 69.304 119.472 69.128C119.781 68.9467 120.026 68.704 120.208 68.4C120.394 68.0907 120.488 67.7493 120.488 67.376C120.488 67.0027 120.397 66.6613 120.216 66.352C120.034 66.0427 119.789 65.7973 119.48 65.616C119.176 65.4293 118.837 65.336 118.464 65.336C118.09 65.336 117.749 65.4293 117.44 65.616C117.13 65.7973 116.885 66.0427 116.704 66.352C116.522 66.6613 116.432 67.0027 116.432 67.376C116.432 67.7387 116.52 68.0747 116.696 68.384C116.877 68.688 117.12 68.9333 117.424 69.12C117.733 69.3013 118.074 69.392 118.448 69.392ZM124.241 73.04L124.353 72.208C124.599 72.2293 124.793 72.1867 124.937 72.08C125.081 71.9787 125.177 71.832 125.225 71.64C125.279 71.4533 125.292 71.24 125.265 71H124.241V68.944H126.217V71.08C126.217 71.7787 126.052 72.3067 125.721 72.664C125.391 73.0213 124.897 73.1467 124.241 73.04ZM133.245 71.24C132.493 71.24 131.815 71.064 131.213 70.712C130.615 70.3547 130.141 69.8613 129.789 69.232C129.437 68.6027 129.261 67.88 129.261 67.064V63.56C129.261 62.6853 129.434 61.9253 129.781 61.28C130.133 60.6347 130.623 60.136 131.253 59.784C131.887 59.432 132.623 59.256 133.461 59.256C134.042 59.256 134.594 59.3547 135.117 59.552C135.639 59.744 136.103 60.0533 136.509 60.48L135.117 61.832C134.914 61.592 134.666 61.4027 134.373 61.264C134.085 61.1253 133.781 61.056 133.461 61.056C133.013 61.056 132.621 61.1627 132.285 61.376C131.949 61.584 131.687 61.8587 131.501 62.2C131.319 62.5413 131.229 62.9067 131.229 63.296V65.208L130.877 64.824C131.207 64.44 131.605 64.1413 132.069 63.928C132.533 63.7093 133.018 63.6 133.525 63.6C134.25 63.6 134.89 63.7653 135.445 64.096C135.999 64.4213 136.437 64.8693 136.757 65.44C137.077 66.0053 137.237 66.6507 137.237 67.376C137.237 68.096 137.053 68.7493 136.685 69.336C136.322 69.9173 135.839 70.3813 135.237 70.728C134.634 71.0693 133.97 71.24 133.245 71.24ZM133.245 69.392C133.618 69.392 133.959 69.304 134.269 69.128C134.578 68.9467 134.823 68.704 135.005 68.4C135.191 68.0907 135.285 67.7493 135.285 67.376C135.285 67.0027 135.194 66.6613 135.013 66.352C134.831 66.0427 134.586 65.7973 134.277 65.616C133.973 65.4293 133.634 65.336 133.261 65.336C132.887 65.336 132.546 65.4293 132.237 65.616C131.927 65.7973 131.682 66.0427 131.501 66.352C131.319 66.6613 131.229 67.0027 131.229 67.376C131.229 67.7387 131.317 68.0747 131.493 68.384C131.674 68.688 131.917 68.9333 132.221 69.12C132.53 69.3013 132.871 69.392 133.245 69.392ZM142.966 71.24C142.203 71.24 141.526 71.0853 140.934 70.776C140.342 70.4667 139.878 70.0373 139.542 69.488C139.206 68.9387 139.038 68.3093 139.038 67.6C139.038 66.9653 139.185 66.376 139.478 65.832C139.771 65.288 140.201 64.8533 140.766 64.528L140.726 65.144C140.283 64.808 139.939 64.4213 139.694 63.984C139.454 63.5413 139.334 63.0453 139.334 62.496C139.334 61.8347 139.489 61.2613 139.798 60.776C140.113 60.2907 140.542 59.9147 141.086 59.648C141.63 59.376 142.257 59.24 142.966 59.24C143.675 59.24 144.302 59.376 144.846 59.648C145.395 59.9147 145.825 60.2907 146.134 60.776C146.449 61.2613 146.606 61.8347 146.606 62.496C146.606 63.0453 146.489 63.5387 146.254 63.976C146.025 64.4133 145.675 64.808 145.206 65.16L145.198 64.536C145.753 64.8507 146.177 65.2827 146.47 65.832C146.769 66.376 146.918 66.9653 146.918 67.6C146.918 68.3093 146.747 68.9387 146.406 69.488C146.07 70.0373 145.603 70.4667 145.006 70.776C144.414 71.0853 143.734 71.24 142.966 71.24ZM142.966 69.424C143.531 69.424 143.99 69.2693 144.342 68.96C144.699 68.6507 144.878 68.1973 144.878 67.6C144.878 67.0027 144.702 66.5493 144.35 66.24C143.998 65.9253 143.537 65.768 142.966 65.768C142.401 65.768 141.945 65.9253 141.598 66.24C141.251 66.5493 141.078 67.0027 141.078 67.6C141.078 68.1973 141.251 68.6507 141.598 68.96C141.945 69.2693 142.401 69.424 142.966 69.424ZM142.966 63.936C143.441 63.936 143.825 63.8187 144.118 63.584C144.417 63.344 144.566 62.9813 144.566 62.496C144.566 62.0107 144.417 61.6507 144.118 61.416C143.825 61.176 143.441 61.056 142.966 61.056C142.497 61.056 142.113 61.176 141.814 61.416C141.521 61.6507 141.374 62.0107 141.374 62.496C141.374 62.9813 141.521 63.344 141.814 63.584C142.113 63.8187 142.497 63.936 142.966 63.936ZM153.139 71.24C152.323 71.24 151.603 71.0667 150.979 70.72C150.355 70.368 149.867 69.88 149.515 69.256C149.168 68.632 148.995 67.912 148.995 67.096V63.384C148.995 62.568 149.168 61.848 149.515 61.224C149.867 60.6 150.355 60.1147 150.979 59.768C151.603 59.416 152.323 59.24 153.139 59.24C153.955 59.24 154.672 59.416 155.291 59.768C155.915 60.1147 156.403 60.6 156.755 61.224C157.107 61.848 157.283 62.568 157.283 63.384V67.096C157.283 67.912 157.107 68.632 156.755 69.256C156.403 69.88 155.915 70.368 155.291 70.72C154.672 71.0667 153.955 71.24 153.139 71.24ZM153.139 69.408C153.544 69.408 153.912 69.312 154.243 69.12C154.574 68.9227 154.835 68.6613 155.027 68.336C155.219 68.0053 155.315 67.6373 155.315 67.232V63.24C155.315 62.8293 155.219 62.4613 155.027 62.136C154.835 61.8053 154.574 61.544 154.243 61.352C153.912 61.1547 153.544 61.056 153.139 61.056C152.734 61.056 152.366 61.1547 152.035 61.352C151.704 61.544 151.443 61.8053 151.251 62.136C151.059 62.4613 150.963 62.8293 150.963 63.24V67.232C150.963 67.6373 151.059 68.0053 151.251 68.336C151.443 68.6613 151.704 68.9227 152.035 69.12C152.366 69.312 152.734 69.408 153.139 69.408Z" fill="black"/>
<path d="M166.435 61.787V63.113H164.238V65.31H162.912V63.113H160.715V61.787H162.912V59.59H164.238V61.787H166.435ZM169.708 57.9H171.008V67H169.513V59.499L167.68 60.019L167.316 58.745L169.708 57.9ZM172.387 67V65.83L175.559 62.593C176.331 61.8217 176.716 61.1543 176.716 60.591C176.716 60.149 176.582 59.8067 176.313 59.564C176.053 59.3127 175.72 59.187 175.312 59.187C174.55 59.187 173.986 59.564 173.622 60.318L172.361 59.577C172.647 58.9703 173.05 58.511 173.57 58.199C174.09 57.887 174.667 57.731 175.299 57.731C176.097 57.731 176.781 57.9823 177.353 58.485C177.925 58.9877 178.211 59.6723 178.211 60.539C178.211 61.4663 177.696 62.4543 176.664 63.503L174.61 65.557H178.38V67H172.387ZM183.028 61.293C182.63 61.6917 182.127 61.891 181.52 61.891C180.914 61.891 180.407 61.6917 179.999 61.293C179.592 60.8857 179.388 60.3917 179.388 59.811C179.388 59.2303 179.592 58.7407 179.999 58.342C180.407 57.9347 180.914 57.731 181.52 57.731C182.127 57.731 182.63 57.9303 183.028 58.329C183.436 58.7277 183.639 59.2217 183.639 59.811C183.639 60.3917 183.436 60.8857 183.028 61.293ZM181.507 60.747C181.785 60.747 182.01 60.656 182.183 60.474C182.357 60.292 182.443 60.071 182.443 59.811C182.443 59.5423 182.357 59.317 182.183 59.135C182.01 58.953 181.785 58.862 181.507 58.862C181.239 58.862 181.018 58.953 180.844 59.135C180.671 59.317 180.584 59.5423 180.584 59.811C180.584 60.071 180.671 60.292 180.844 60.474C181.018 60.656 181.239 60.747 181.507 60.747ZM180.155 65.661L186.148 58.992L186.85 59.395L180.857 66.077L180.155 65.661ZM185.68 67.156C185.074 67.156 184.567 66.9567 184.159 66.558C183.752 66.1507 183.548 65.6567 183.548 65.076C183.548 64.4953 183.752 64.0057 184.159 63.607C184.567 63.1997 185.074 62.996 185.68 62.996C186.278 62.996 186.781 63.1997 187.188 63.607C187.596 64.0057 187.799 64.4953 187.799 65.076C187.799 65.6567 187.596 66.1507 187.188 66.558C186.781 66.9567 186.278 67.156 185.68 67.156ZM185.667 66.012C185.945 66.012 186.17 65.921 186.343 65.739C186.517 65.557 186.603 65.336 186.603 65.076C186.603 64.8073 186.517 64.582 186.343 64.4C186.17 64.218 185.945 64.127 185.667 64.127C185.399 64.127 185.178 64.218 185.004 64.4C184.831 64.582 184.744 64.8073 184.744 65.076C184.744 65.336 184.831 65.557 185.004 65.739C185.178 65.921 185.399 66.012 185.667 66.012Z" fill="#00E1F0"/>
<path d="M97.615 88.15C96.8983 88.15 96.2933 87.9917 95.8 87.675C95.3067 87.355 94.9333 86.9133 94.68 86.35C94.4267 85.7867 94.3 85.1367 94.3 84.4C94.3 83.6633 94.4267 83.0133 94.68 82.45C94.9333 81.8867 95.3067 81.4467 95.8 81.13C96.2933 80.81 96.8983 80.65 97.615 80.65C98.4517 80.65 99.135 80.865 99.665 81.295C100.195 81.7217 100.558 82.295 100.755 83.015L100.005 83.21C99.8517 82.64 99.5767 82.1883 99.18 81.855C98.7833 81.5217 98.2617 81.355 97.615 81.355C97.0517 81.355 96.5833 81.4833 96.21 81.74C95.8367 81.9967 95.555 82.355 95.365 82.815C95.1783 83.2717 95.0817 83.8 95.075 84.4C95.0717 85 95.1633 85.5283 95.35 85.985C95.54 86.4417 95.8233 86.8 96.2 87.06C96.58 87.3167 97.0517 87.445 97.615 87.445C98.2617 87.445 98.7833 87.2783 99.18 86.945C99.5767 86.6083 99.8517 86.1567 100.005 85.59L100.755 85.785C100.558 86.505 100.195 87.08 99.665 87.51C99.135 87.9367 98.4517 88.15 97.615 88.15ZM104.113 88.15C103.577 88.15 103.118 88.0283 102.738 87.785C102.358 87.5417 102.067 87.205 101.863 86.775C101.66 86.345 101.558 85.8517 101.558 85.295C101.558 84.7283 101.662 84.2317 101.868 83.805C102.075 83.3783 102.368 83.0467 102.748 82.81C103.132 82.57 103.587 82.45 104.113 82.45C104.653 82.45 105.113 82.5717 105.493 82.815C105.877 83.055 106.168 83.39 106.368 83.82C106.572 84.2467 106.673 84.7383 106.673 85.295C106.673 85.8617 106.572 86.36 106.368 86.79C106.165 87.2167 105.872 87.55 105.488 87.79C105.105 88.03 104.647 88.15 104.113 88.15ZM104.113 87.445C104.713 87.445 105.16 87.2467 105.453 86.85C105.747 86.45 105.893 85.9317 105.893 85.295C105.893 84.6417 105.745 84.1217 105.448 83.735C105.155 83.3483 104.71 83.155 104.113 83.155C103.71 83.155 103.377 83.2467 103.113 83.43C102.853 83.61 102.658 83.8617 102.528 84.185C102.402 84.505 102.338 84.875 102.338 85.295C102.338 85.945 102.488 86.4667 102.788 86.86C103.088 87.25 103.53 87.445 104.113 87.445ZM114.216 88L114.221 84.455C114.221 84.0383 114.105 83.7117 113.871 83.475C113.641 83.235 113.348 83.115 112.991 83.115C112.788 83.115 112.59 83.1617 112.396 83.255C112.203 83.3483 112.043 83.4983 111.916 83.705C111.793 83.9117 111.731 84.1817 111.731 84.515L111.296 84.39C111.286 84.0033 111.361 83.665 111.521 83.375C111.685 83.085 111.908 82.86 112.191 82.7C112.478 82.5367 112.801 82.455 113.161 82.455C113.705 82.455 114.14 82.6233 114.466 82.96C114.793 83.2933 114.956 83.745 114.956 84.315L114.951 88H114.216ZM107.771 88V82.6H108.431V83.93H108.511V88H107.771ZM111.001 88L111.006 84.505C111.006 84.075 110.891 83.7367 110.661 83.49C110.435 83.24 110.135 83.115 109.761 83.115C109.388 83.115 109.086 83.2433 108.856 83.5C108.626 83.7533 108.511 84.0917 108.511 84.515L108.071 84.275C108.071 83.9283 108.153 83.6183 108.316 83.345C108.48 83.0683 108.703 82.8517 108.986 82.695C109.27 82.535 109.591 82.455 109.951 82.455C110.295 82.455 110.6 82.5283 110.866 82.675C111.136 82.8217 111.348 83.035 111.501 83.315C111.655 83.595 111.731 83.935 111.731 84.335L111.726 88H111.001ZM118.678 88.15C118.181 88.15 117.761 88.025 117.418 87.775C117.074 87.5217 116.814 87.18 116.638 86.75C116.461 86.3167 116.373 85.8317 116.373 85.295C116.373 84.7483 116.461 84.2617 116.638 83.835C116.818 83.405 117.081 83.0667 117.428 82.82C117.774 82.5733 118.201 82.45 118.708 82.45C119.201 82.45 119.624 82.575 119.978 82.825C120.331 83.075 120.601 83.415 120.788 83.845C120.978 84.275 121.073 84.7583 121.073 85.295C121.073 85.835 120.978 86.32 120.788 86.75C120.598 87.18 120.324 87.5217 119.968 87.775C119.611 88.025 119.181 88.15 118.678 88.15ZM116.248 90.4V82.6H116.908V86.665H116.988V90.4H116.248ZM118.603 87.465C118.979 87.465 119.293 87.37 119.543 87.18C119.793 86.99 119.979 86.7317 120.103 86.405C120.229 86.075 120.293 85.705 120.293 85.295C120.293 84.8883 120.231 84.5217 120.108 84.195C119.984 83.8683 119.796 83.61 119.543 83.42C119.293 83.23 118.974 83.135 118.588 83.135C118.211 83.135 117.898 83.2267 117.648 83.41C117.401 83.5933 117.216 83.8483 117.093 84.175C116.969 84.4983 116.908 84.8717 116.908 85.295C116.908 85.7117 116.969 86.085 117.093 86.415C117.216 86.7417 117.403 86.9983 117.653 87.185C117.903 87.3717 118.219 87.465 118.603 87.465ZM123.716 88.15C123.309 88.15 122.967 88.0767 122.691 87.93C122.417 87.7833 122.212 87.5883 122.076 87.345C121.939 87.1017 121.871 86.8367 121.871 86.55C121.871 86.2567 121.929 86.0067 122.046 85.8C122.166 85.59 122.327 85.4183 122.531 85.285C122.737 85.1517 122.976 85.05 123.246 84.98C123.519 84.9133 123.821 84.855 124.151 84.805C124.484 84.7517 124.809 84.7067 125.126 84.67C125.446 84.63 125.726 84.5917 125.966 84.555L125.706 84.715C125.716 84.1817 125.612 83.7867 125.396 83.53C125.179 83.2733 124.802 83.145 124.266 83.145C123.896 83.145 123.582 83.2283 123.326 83.395C123.072 83.5617 122.894 83.825 122.791 84.185L122.076 83.975C122.199 83.4917 122.447 83.1167 122.821 82.85C123.194 82.5833 123.679 82.45 124.276 82.45C124.769 82.45 125.187 82.5433 125.531 82.73C125.877 82.9133 126.122 83.18 126.266 83.53C126.332 83.6867 126.376 83.8617 126.396 84.055C126.416 84.2483 126.426 84.445 126.426 84.645V88H125.771V86.645L125.961 86.725C125.777 87.1883 125.492 87.5417 125.106 87.785C124.719 88.0283 124.256 88.15 123.716 88.15ZM123.801 87.515C124.144 87.515 124.444 87.4533 124.701 87.33C124.957 87.2067 125.164 87.0383 125.321 86.825C125.477 86.6083 125.579 86.365 125.626 86.095C125.666 85.9217 125.687 85.7317 125.691 85.525C125.694 85.315 125.696 85.1583 125.696 85.055L125.976 85.2C125.726 85.2333 125.454 85.2667 125.161 85.3C124.871 85.3333 124.584 85.3717 124.301 85.415C124.021 85.4583 123.767 85.51 123.541 85.57C123.387 85.6133 123.239 85.675 123.096 85.755C122.952 85.8317 122.834 85.935 122.741 86.065C122.651 86.195 122.606 86.3567 122.606 86.55C122.606 86.7067 122.644 86.8583 122.721 87.005C122.801 87.1517 122.927 87.2733 123.101 87.37C123.277 87.4667 123.511 87.515 123.801 87.515ZM127.727 88V82.6H128.387V83.9L128.257 83.73C128.317 83.57 128.396 83.4233 128.492 83.29C128.589 83.1533 128.694 83.0417 128.807 82.955C128.947 82.8317 129.111 82.7383 129.297 82.675C129.484 82.6083 129.672 82.57 129.862 82.56C130.052 82.5467 130.226 82.56 130.382 82.6V83.29C130.186 83.24 129.971 83.2283 129.737 83.255C129.504 83.2817 129.289 83.375 129.092 83.535C128.912 83.675 128.777 83.8433 128.687 84.04C128.597 84.2333 128.537 84.44 128.507 84.66C128.477 84.8767 128.462 85.0917 128.462 85.305V88H127.727ZM133.518 88.15C132.992 88.15 132.535 88.0333 132.148 87.8C131.765 87.5667 131.467 87.2383 131.253 86.815C131.04 86.3917 130.933 85.895 130.933 85.325C130.933 84.735 131.038 84.225 131.248 83.795C131.458 83.365 131.753 83.0333 132.133 82.8C132.517 82.5667 132.968 82.45 133.488 82.45C134.022 82.45 134.477 82.5733 134.853 82.82C135.23 83.0633 135.515 83.4133 135.708 83.87C135.902 84.3267 135.99 84.8717 135.973 85.505H135.223V85.245C135.21 84.545 135.058 84.0167 134.768 83.66C134.482 83.3033 134.062 83.125 133.508 83.125C132.928 83.125 132.483 83.3133 132.173 83.69C131.867 84.0667 131.713 84.6033 131.713 85.3C131.713 85.98 131.867 86.5083 132.173 86.885C132.483 87.2583 132.922 87.445 133.488 87.445C133.875 87.445 134.212 87.3567 134.498 87.18C134.788 87 135.017 86.7417 135.183 86.405L135.868 86.67C135.655 87.14 135.34 87.505 134.923 87.765C134.51 88.0217 134.042 88.15 133.518 88.15ZM131.453 85.505V84.89H135.578V85.505H131.453ZM139.178 88.15C138.674 88.15 138.244 88.025 137.888 87.775C137.531 87.5217 137.258 87.18 137.068 86.75C136.878 86.32 136.783 85.835 136.783 85.295C136.783 84.7583 136.876 84.275 137.063 83.845C137.253 83.415 137.524 83.075 137.878 82.825C138.231 82.575 138.654 82.45 139.148 82.45C139.654 82.45 140.081 82.5733 140.428 82.82C140.774 83.0667 141.036 83.405 141.213 83.835C141.393 84.2617 141.483 84.7483 141.483 85.295C141.483 85.8317 141.394 86.3167 141.218 86.75C141.041 87.18 140.781 87.5217 140.438 87.775C140.094 88.025 139.674 88.15 139.178 88.15ZM139.253 87.465C139.636 87.465 139.953 87.3717 140.203 87.185C140.453 86.9983 140.639 86.7417 140.763 86.415C140.886 86.085 140.948 85.7117 140.948 85.295C140.948 84.8717 140.886 84.4983 140.763 84.175C140.639 83.8483 140.453 83.5933 140.203 83.41C139.956 83.2267 139.644 83.135 139.268 83.135C138.881 83.135 138.561 83.23 138.308 83.42C138.054 83.61 137.866 83.8683 137.743 84.195C137.623 84.5217 137.563 84.8883 137.563 85.295C137.563 85.705 137.624 86.075 137.748 86.405C137.874 86.7317 138.063 86.99 138.313 87.18C138.563 87.37 138.876 87.465 139.253 87.465ZM140.948 88V83.935H140.868V80.8H141.608V88H140.948ZM147.953 88C147.649 88.0633 147.349 88.0883 147.053 88.075C146.759 88.0617 146.496 87.9983 146.263 87.885C146.033 87.7717 145.858 87.595 145.738 87.355C145.641 87.155 145.588 86.9533 145.578 86.75C145.571 86.5433 145.568 86.3083 145.568 86.045V81.1H146.298V86.015C146.298 86.2417 146.299 86.4317 146.303 86.585C146.309 86.735 146.344 86.8683 146.408 86.985C146.528 87.2083 146.718 87.3417 146.978 87.385C147.241 87.4283 147.566 87.4183 147.953 87.355V88ZM144.413 83.23V82.6H147.953V83.23H144.413ZM151.076 88.15C150.539 88.15 150.081 88.0283 149.701 87.785C149.321 87.5417 149.029 87.205 148.826 86.775C148.623 86.345 148.521 85.8517 148.521 85.295C148.521 84.7283 148.624 84.2317 148.831 83.805C149.038 83.3783 149.331 83.0467 149.711 82.81C150.094 82.57 150.549 82.45 151.076 82.45C151.616 82.45 152.076 82.5717 152.456 82.815C152.839 83.055 153.131 83.39 153.331 83.82C153.534 84.2467 153.636 84.7383 153.636 85.295C153.636 85.8617 153.534 86.36 153.331 86.79C153.128 87.2167 152.834 87.55 152.451 87.79C152.068 88.03 151.609 88.15 151.076 88.15ZM151.076 87.445C151.676 87.445 152.123 87.2467 152.416 86.85C152.709 86.45 152.856 85.9317 152.856 85.295C152.856 84.6417 152.708 84.1217 152.411 83.735C152.118 83.3483 151.673 83.155 151.076 83.155C150.673 83.155 150.339 83.2467 150.076 83.43C149.816 83.61 149.621 83.8617 149.491 84.185C149.364 84.505 149.301 84.875 149.301 85.295C149.301 85.945 149.451 86.4667 149.751 86.86C150.051 87.25 150.493 87.445 151.076 87.445ZM158.641 88.985V87.845H159.376V88.985H158.641ZM158.641 80.95V79.805H159.376V80.95H158.641ZM159.096 88.15C158.619 88.15 158.189 88.065 157.806 87.895C157.426 87.725 157.111 87.485 156.861 87.175C156.614 86.865 156.453 86.4983 156.376 86.075L157.091 85.95C157.201 86.41 157.438 86.775 157.801 87.045C158.168 87.3117 158.609 87.445 159.126 87.445C159.649 87.445 160.073 87.3183 160.396 87.065C160.719 86.8083 160.881 86.4733 160.881 86.06C160.881 85.7533 160.791 85.5083 160.611 85.325C160.431 85.1417 160.126 84.985 159.696 84.855L158.096 84.355C157.129 84.0517 156.646 83.4783 156.646 82.635C156.646 82.2417 156.743 81.8967 156.936 81.6C157.133 81.3 157.404 81.0667 157.751 80.9C158.101 80.7333 158.509 80.6517 158.976 80.655C159.433 80.655 159.841 80.7417 160.201 80.915C160.564 81.085 160.863 81.3267 161.096 81.64C161.329 81.9533 161.484 82.325 161.561 82.755L160.826 82.895C160.779 82.5883 160.671 82.32 160.501 82.09C160.334 81.86 160.119 81.6817 159.856 81.555C159.593 81.425 159.299 81.3583 158.976 81.355C158.669 81.355 158.396 81.4083 158.156 81.515C157.916 81.6217 157.726 81.77 157.586 81.96C157.449 82.1467 157.381 82.3617 157.381 82.605C157.381 82.8717 157.476 83.0983 157.666 83.285C157.859 83.4683 158.164 83.6233 158.581 83.75L159.956 84.165C160.536 84.3383 160.954 84.5717 161.211 84.865C161.468 85.1583 161.596 85.55 161.596 86.04C161.596 86.4633 161.493 86.8333 161.286 87.15C161.079 87.4667 160.788 87.7133 160.411 87.89C160.038 88.0633 159.599 88.15 159.096 88.15ZM162.43 87.995L162.435 87.325L165.69 84.385C165.97 84.1317 166.155 83.8917 166.245 83.665C166.338 83.435 166.385 83.195 166.385 82.945C166.385 82.6483 166.315 82.38 166.175 82.14C166.035 81.9 165.846 81.71 165.61 81.57C165.373 81.4267 165.108 81.355 164.815 81.355C164.508 81.355 164.235 81.4283 163.995 81.575C163.755 81.7217 163.565 81.915 163.425 82.155C163.288 82.395 163.221 82.6567 163.225 82.94H162.475C162.475 82.5033 162.578 82.1117 162.785 81.765C162.991 81.4183 163.271 81.1467 163.625 80.95C163.978 80.75 164.378 80.65 164.825 80.65C165.261 80.65 165.653 80.7533 166 80.96C166.35 81.1633 166.625 81.44 166.825 81.79C167.028 82.1367 167.13 82.5233 167.13 82.95C167.13 83.25 167.093 83.515 167.02 83.745C166.95 83.9717 166.838 84.1833 166.685 84.38C166.535 84.5733 166.343 84.7733 166.11 84.98L163.22 87.59L163.105 87.29H167.13V87.995H162.43ZM170.528 88.15C170.078 88.15 169.679 88.06 169.333 87.88C168.989 87.7 168.719 87.4483 168.523 87.125C168.329 86.7983 168.233 86.4167 168.233 85.98C168.233 85.5333 168.341 85.1367 168.558 84.79C168.774 84.44 169.104 84.175 169.548 83.995L169.538 84.285C169.168 84.1483 168.886 83.925 168.693 83.615C168.499 83.305 168.403 82.9617 168.403 82.585C168.403 82.185 168.494 81.8417 168.678 81.555C168.861 81.265 169.111 81.0417 169.428 80.885C169.748 80.7283 170.114 80.65 170.528 80.65C170.941 80.65 171.308 80.7283 171.628 80.885C171.948 81.0417 172.199 81.265 172.383 81.555C172.566 81.8417 172.658 82.185 172.658 82.585C172.658 82.9617 172.564 83.3033 172.378 83.61C172.194 83.9167 171.913 84.1417 171.533 84.285L171.508 83.995C171.951 84.1717 172.283 84.435 172.503 84.785C172.726 85.135 172.838 85.5333 172.838 85.98C172.838 86.4167 172.739 86.7983 172.543 87.125C172.346 87.4483 172.074 87.7 171.728 87.88C171.381 88.06 170.981 88.15 170.528 88.15ZM170.528 87.445C170.981 87.445 171.349 87.32 171.633 87.07C171.916 86.8167 172.058 86.4533 172.058 85.98C172.058 85.5 171.918 85.1367 171.638 84.89C171.358 84.64 170.988 84.515 170.528 84.515C170.068 84.515 169.699 84.64 169.423 84.89C169.146 85.1367 169.008 85.5 169.008 85.98C169.008 86.4533 169.148 86.8167 169.428 87.07C169.708 87.32 170.074 87.445 170.528 87.445ZM170.528 83.805C170.928 83.805 171.253 83.7033 171.503 83.5C171.753 83.2933 171.878 82.9883 171.878 82.585C171.878 82.1817 171.753 81.88 171.503 81.68C171.253 81.4767 170.928 81.375 170.528 81.375C170.128 81.375 169.803 81.4767 169.553 81.68C169.306 81.88 169.183 82.1817 169.183 82.585C169.183 82.9883 169.306 83.2933 169.553 83.5C169.803 83.7033 170.128 83.805 170.528 83.805ZM174.034 89.045L174.079 88.68C174.212 88.69 174.309 88.6633 174.369 88.6C174.429 88.5367 174.465 88.4517 174.479 88.345C174.492 88.2383 174.495 88.1233 174.489 88H174.034V86.945H174.889V88.2C174.889 88.5067 174.81 88.7367 174.654 88.89C174.5 89.0433 174.294 89.095 174.034 89.045ZM179.14 88.15C178.697 88.15 178.297 88.0467 177.94 87.84C177.587 87.6333 177.307 87.3533 177.1 87C176.893 86.6433 176.79 86.2433 176.79 85.8V83C176.79 82.5567 176.893 82.1583 177.1 81.805C177.307 81.4483 177.587 81.1667 177.94 80.96C178.297 80.7533 178.697 80.65 179.14 80.65C179.583 80.65 179.982 80.7533 180.335 80.96C180.692 81.1667 180.973 81.4483 181.18 81.805C181.387 82.1583 181.49 82.5567 181.49 83V85.8C181.49 86.2433 181.387 86.6433 181.18 87C180.973 87.3533 180.692 87.6333 180.335 87.84C179.982 88.0467 179.583 88.15 179.14 88.15ZM179.14 87.44C179.437 87.44 179.707 87.3683 179.95 87.225C180.193 87.0783 180.387 86.8833 180.53 86.64C180.673 86.3967 180.745 86.1283 180.745 85.835V82.965C180.745 82.6683 180.673 82.3983 180.53 82.155C180.387 81.9117 180.193 81.7183 179.95 81.575C179.707 81.4283 179.437 81.355 179.14 81.355C178.843 81.355 178.573 81.4283 178.33 81.575C178.087 81.7183 177.893 81.9117 177.75 82.155C177.607 82.3983 177.535 82.6683 177.535 82.965V85.835C177.535 86.1283 177.607 86.3967 177.75 86.64C177.893 86.8833 178.087 87.0783 178.33 87.225C178.573 87.3683 178.843 87.44 179.14 87.44ZM185.243 88.15C184.8 88.15 184.4 88.0467 184.043 87.84C183.69 87.6333 183.41 87.3533 183.203 87C182.997 86.6433 182.893 86.2433 182.893 85.8V83C182.893 82.5567 182.997 82.1583 183.203 81.805C183.41 81.4483 183.69 81.1667 184.043 80.96C184.4 80.7533 184.8 80.65 185.243 80.65C185.687 80.65 186.085 80.7533 186.438 80.96C186.795 81.1667 187.077 81.4483 187.283 81.805C187.49 82.1583 187.593 82.5567 187.593 83V85.8C187.593 86.2433 187.49 86.6433 187.283 87C187.077 87.3533 186.795 87.6333 186.438 87.84C186.085 88.0467 185.687 88.15 185.243 88.15ZM185.243 87.44C185.54 87.44 185.81 87.3683 186.053 87.225C186.297 87.0783 186.49 86.8833 186.633 86.64C186.777 86.3967 186.848 86.1283 186.848 85.835V82.965C186.848 82.6683 186.777 82.3983 186.633 82.155C186.49 81.9117 186.297 81.7183 186.053 81.575C185.81 81.4283 185.54 81.355 185.243 81.355C184.947 81.355 184.677 81.4283 184.433 81.575C184.19 81.7183 183.997 81.9117 183.853 82.155C183.71 82.3983 183.638 82.6683 183.638 82.965V85.835C183.638 86.1283 183.71 86.3967 183.853 86.64C183.997 86.8833 184.19 87.0783 184.433 87.225C184.677 87.3683 184.947 87.44 185.243 87.44ZM191.347 88.15C190.904 88.15 190.504 88.0467 190.147 87.84C189.794 87.6333 189.514 87.3533 189.307 87C189.1 86.6433 188.997 86.2433 188.997 85.8V83C188.997 82.5567 189.1 82.1583 189.307 81.805C189.514 81.4483 189.794 81.1667 190.147 80.96C190.504 80.7533 190.904 80.65 191.347 80.65C191.79 80.65 192.189 80.7533 192.542 80.96C192.899 81.1667 193.18 81.4483 193.387 81.805C193.594 82.1583 193.697 82.5567 193.697 83V85.8C193.697 86.2433 193.594 86.6433 193.387 87C193.18 87.3533 192.899 87.6333 192.542 87.84C192.189 88.0467 191.79 88.15 191.347 88.15ZM191.347 87.44C191.644 87.44 191.914 87.3683 192.157 87.225C192.4 87.0783 192.594 86.8833 192.737 86.64C192.88 86.3967 192.952 86.1283 192.952 85.835V82.965C192.952 82.6683 192.88 82.3983 192.737 82.155C192.594 81.9117 192.4 81.7183 192.157 81.575C191.914 81.4283 191.644 81.355 191.347 81.355C191.05 81.355 190.78 81.4283 190.537 81.575C190.294 81.7183 190.1 81.9117 189.957 82.155C189.814 82.3983 189.742 82.6683 189.742 82.965V85.835C189.742 86.1283 189.814 86.3967 189.957 86.64C190.1 86.8833 190.294 87.0783 190.537 87.225C190.78 87.3683 191.05 87.44 191.347 87.44ZM197.202 88V80.8H197.937V87.295H201.357V88H197.202ZM203.755 88.15C203.348 88.15 203.006 88.0767 202.73 87.93C202.456 87.7833 202.251 87.5883 202.115 87.345C201.978 87.1017 201.91 86.8367 201.91 86.55C201.91 86.2567 201.968 86.0067 202.085 85.8C202.205 85.59 202.366 85.4183 202.57 85.285C202.776 85.1517 203.015 85.05 203.285 84.98C203.558 84.9133 203.86 84.855 204.19 84.805C204.523 84.7517 204.848 84.7067 205.165 84.67C205.485 84.63 205.765 84.5917 206.005 84.555L205.745 84.715C205.755 84.1817 205.651 83.7867 205.435 83.53C205.218 83.2733 204.841 83.145 204.305 83.145C203.935 83.145 203.621 83.2283 203.365 83.395C203.111 83.5617 202.933 83.825 202.83 84.185L202.115 83.975C202.238 83.4917 202.486 83.1167 202.86 82.85C203.233 82.5833 203.718 82.45 204.315 82.45C204.808 82.45 205.226 82.5433 205.57 82.73C205.916 82.9133 206.161 83.18 206.305 83.53C206.371 83.6867 206.415 83.8617 206.435 84.055C206.455 84.2483 206.465 84.445 206.465 84.645V88H205.81V86.645L206 86.725C205.816 87.1883 205.531 87.5417 205.145 87.785C204.758 88.0283 204.295 88.15 203.755 88.15ZM203.84 87.515C204.183 87.515 204.483 87.4533 204.74 87.33C204.996 87.2067 205.203 87.0383 205.36 86.825C205.516 86.6083 205.618 86.365 205.665 86.095C205.705 85.9217 205.726 85.7317 205.73 85.525C205.733 85.315 205.735 85.1583 205.735 85.055L206.015 85.2C205.765 85.2333 205.493 85.2667 205.2 85.3C204.91 85.3333 204.623 85.3717 204.34 85.415C204.06 85.4583 203.806 85.51 203.58 85.57C203.426 85.6133 203.278 85.675 203.135 85.755C202.991 85.8317 202.873 85.935 202.78 86.065C202.69 86.195 202.645 86.3567 202.645 86.55C202.645 86.7067 202.683 86.8583 202.76 87.005C202.84 87.1517 202.966 87.2733 203.14 87.37C203.316 87.4667 203.55 87.515 203.84 87.515ZM209.781 88.145C209.148 88.145 208.626 88.0083 208.216 87.735C207.81 87.4617 207.56 87.0817 207.466 86.595L208.216 86.47C208.296 86.7767 208.478 87.0217 208.761 87.205C209.048 87.385 209.401 87.475 209.821 87.475C210.231 87.475 210.555 87.39 210.791 87.22C211.028 87.0467 211.146 86.8117 211.146 86.515C211.146 86.3483 211.108 86.2133 211.031 86.11C210.958 86.0033 210.806 85.905 210.576 85.815C210.346 85.725 210.003 85.6183 209.546 85.495C209.056 85.3617 208.673 85.2283 208.396 85.095C208.12 84.9617 207.923 84.8083 207.806 84.635C207.69 84.4583 207.631 84.2433 207.631 83.99C207.631 83.6833 207.718 83.415 207.891 83.185C208.065 82.9517 208.305 82.7717 208.611 82.645C208.918 82.515 209.275 82.45 209.681 82.45C210.088 82.45 210.451 82.5167 210.771 82.65C211.095 82.78 211.355 82.9633 211.551 83.2C211.748 83.4367 211.865 83.7117 211.901 84.025L211.151 84.16C211.101 83.8433 210.943 83.5933 210.676 83.41C210.413 83.2233 210.078 83.1267 209.671 83.12C209.288 83.11 208.976 83.1833 208.736 83.34C208.496 83.4933 208.376 83.6983 208.376 83.955C208.376 84.0983 208.42 84.2217 208.506 84.325C208.593 84.425 208.75 84.52 208.976 84.61C209.206 84.7 209.533 84.7983 209.956 84.905C210.453 85.0317 210.843 85.165 211.126 85.305C211.41 85.445 211.611 85.61 211.731 85.8C211.851 85.99 211.911 86.225 211.911 86.505C211.911 87.015 211.721 87.4167 211.341 87.71C210.965 88 210.445 88.145 209.781 88.145ZM215.96 88C215.657 88.0633 215.357 88.0883 215.06 88.075C214.767 88.0617 214.504 87.9983 214.27 87.885C214.04 87.7717 213.865 87.595 213.745 87.355C213.649 87.155 213.595 86.9533 213.585 86.75C213.579 86.5433 213.575 86.3083 213.575 86.045V81.1H214.305V86.015C214.305 86.2417 214.307 86.4317 214.31 86.585C214.317 86.735 214.352 86.8683 214.415 86.985C214.535 87.2083 214.725 87.3417 214.985 87.385C215.249 87.4283 215.574 87.4183 215.96 87.355V88ZM212.42 83.23V82.6H215.96V83.23H212.42ZM220.741 88V84.985L218.326 80.8H219.176L221.111 84.145L223.036 80.8H223.886L221.481 84.985V88H220.741ZM226.067 88.15C225.54 88.15 225.084 88.0333 224.697 87.8C224.314 87.5667 224.015 87.2383 223.802 86.815C223.589 86.3917 223.482 85.895 223.482 85.325C223.482 84.735 223.587 84.225 223.797 83.795C224.007 83.365 224.302 83.0333 224.682 82.8C225.065 82.5667 225.517 82.45 226.037 82.45C226.57 82.45 227.025 82.5733 227.402 82.82C227.779 83.0633 228.064 83.4133 228.257 83.87C228.45 84.3267 228.539 84.8717 228.522 85.505H227.772V85.245C227.759 84.545 227.607 84.0167 227.317 83.66C227.03 83.3033 226.61 83.125 226.057 83.125C225.477 83.125 225.032 83.3133 224.722 83.69C224.415 84.0667 224.262 84.6033 224.262 85.3C224.262 85.98 224.415 86.5083 224.722 86.885C225.032 87.2583 225.47 87.445 226.037 87.445C226.424 87.445 226.76 87.3567 227.047 87.18C227.337 87 227.565 86.7417 227.732 86.405L228.417 86.67C228.204 87.14 227.889 87.505 227.472 87.765C227.059 88.0217 226.59 88.15 226.067 88.15ZM224.002 85.505V84.89H228.127V85.505H224.002ZM231.079 88.15C230.672 88.15 230.331 88.0767 230.054 87.93C229.781 87.7833 229.576 87.5883 229.439 87.345C229.302 87.1017 229.234 86.8367 229.234 86.55C229.234 86.2567 229.292 86.0067 229.409 85.8C229.529 85.59 229.691 85.4183 229.894 85.285C230.101 85.1517 230.339 85.05 230.609 84.98C230.882 84.9133 231.184 84.855 231.514 84.805C231.847 84.7517 232.172 84.7067 232.489 84.67C232.809 84.63 233.089 84.5917 233.329 84.555L233.069 84.715C233.079 84.1817 232.976 83.7867 232.759 83.53C232.542 83.2733 232.166 83.145 231.629 83.145C231.259 83.145 230.946 83.2283 230.689 83.395C230.436 83.5617 230.257 83.825 230.154 84.185L229.439 83.975C229.562 83.4917 229.811 83.1167 230.184 82.85C230.557 82.5833 231.042 82.45 231.639 82.45C232.132 82.45 232.551 82.5433 232.894 82.73C233.241 82.9133 233.486 83.18 233.629 83.53C233.696 83.6867 233.739 83.8617 233.759 84.055C233.779 84.2483 233.789 84.445 233.789 84.645V88H233.134V86.645L233.324 86.725C233.141 87.1883 232.856 87.5417 232.469 87.785C232.082 88.0283 231.619 88.15 231.079 88.15ZM231.164 87.515C231.507 87.515 231.807 87.4533 232.064 87.33C232.321 87.2067 232.527 87.0383 232.684 86.825C232.841 86.6083 232.942 86.365 232.989 86.095C233.029 85.9217 233.051 85.7317 233.054 85.525C233.057 85.315 233.059 85.1583 233.059 85.055L233.339 85.2C233.089 85.2333 232.817 85.2667 232.524 85.3C232.234 85.3333 231.947 85.3717 231.664 85.415C231.384 85.4583 231.131 85.51 230.904 85.57C230.751 85.6133 230.602 85.675 230.459 85.755C230.316 85.8317 230.197 85.935 230.104 86.065C230.014 86.195 229.969 86.3567 229.969 86.55C229.969 86.7067 230.007 86.8583 230.084 87.005C230.164 87.1517 230.291 87.2733 230.464 87.37C230.641 87.4667 230.874 87.515 231.164 87.515ZM235.091 88V82.6H235.751V83.9L235.621 83.73C235.681 83.57 235.759 83.4233 235.856 83.29C235.952 83.1533 236.057 83.0417 236.171 82.955C236.311 82.8317 236.474 82.7383 236.661 82.675C236.847 82.6083 237.036 82.57 237.226 82.56C237.416 82.5467 237.589 82.56 237.746 82.6V83.29C237.549 83.24 237.334 83.2283 237.101 83.255C236.867 83.2817 236.652 83.375 236.456 83.535C236.276 83.675 236.141 83.8433 236.051 84.04C235.961 84.2333 235.901 84.44 235.871 84.66C235.841 84.8767 235.826 85.0917 235.826 85.305V88H235.091Z" fill="#718EBF"/>
<defs>
<filter id="filter0_dddddd_1_1034" x="0" y="0.703704" width="356" height="293.296" filterUnits="userSpaceOnUse" color-interpolation-filters="sRGB">
<feFlood flood-opacity="0" result="BackgroundImageFix"/>
<feColorMatrix in="SourceAlpha" type="matrix" values="0 0 0 0 0 0 0 0 0 0 0 0 0 0 0 0 0 0 127 0" result="hardAlpha"/>
<feOffset dy="1.85185"/>
<feGaussianBlur stdDeviation="1.57407"/>
<feColorMatrix type="matrix" values="0 0 0 0 0 0 0 0 0 0 0 0 0 0 0 0 0 0 0.01 0"/>
<feBlend mode="normal" in2="BackgroundImageFix" result="effect1_dropShadow_1_1034"/>
<feColorMatrix in="SourceAlpha" type="matrix" values="0 0 0 0 0 0 0 0 0 0 0 0 0 0 0 0 0 0 127 0" result="hardAlpha"/>
<feOffset dy="8.14815"/>
<feGaussianBlur stdDeviation="3.25926"/>
<feColorMatrix type="matrix" values="0 0 0 0 0 0 0 0 0 0 0 0 0 0 0 0 0 0 0.0117778 0"/>
<feBlend mode="normal" in2="effect1_dropShadow_1_1034" result="effect2_dropShadow_1_1034"/>
<feColorMatrix in="SourceAlpha" type="matrix" values="0 0 0 0 0 0 0 0 0 0 0 0 0 0 0 0 0 0 127 0" result="hardAlpha"/>
<feOffset dy="20"/>
<feGaussianBlur stdDeviation="6.5"/>
<feColorMatrix type="matrix" values="0 0 0 0 0 0 0 0 0 0 0 0 0 0 0 0 0 0 0.015 0"/>
<feBlend mode="normal" in2="effect2_dropShadow_1_1034" result="effect3_dropShadow_1_1034"/>
<feColorMatrix in="SourceAlpha" type="matrix" values="0 0 0 0 0 0 0 0 0 0 0 0 0 0 0 0 0 0 127 0" result="hardAlpha"/>
<feOffset dy="38.5185"/>
<feGaussianBlur stdDeviation="12.7407"/>
<feColorMatrix type="matrix" values="0 0 0 0 0 0 0 0 0 0 0 0 0 0 0 0 0 0 0.0182222 0"/>
<feBlend mode="normal" in2="effect3_dropShadow_1_1034" result="effect4_dropShadow_1_1034"/>
<feColorMatrix in="SourceAlpha" type="matrix" values="0 0 0 0 0 0 0 0 0 0 0 0 0 0 0 0 0 0 127 0" result="hardAlpha"/>
<feOffset dy="64.8148"/>
<feGaussianBlur stdDeviation="23.4259"/>
<feColorMatrix type="matrix" values="0 0 0 0 0 0 0 0 0 0 0 0 0 0 0 0 0 0 0.0227778 0"/>
<feBlend mode="normal" in2="effect4_dropShadow_1_1034" result="effect5_dropShadow_1_1034"/>
<feColorMatrix in="SourceAlpha" type="matrix" values="0 0 0 0 0 0 0 0 0 0 0 0 0 0 0 0 0 0 127 0" result="hardAlpha"/>
<feOffset dy="100"/>
<feGaussianBlur stdDeviation="40"/>
<feColorMatrix type="matrix" values="0 0 0 0 0 0 0 0 0 0 0 0 0 0 0 0 0 0 0.03 0"/>
<feBlend mode="normal" in2="effect5_dropShadow_1_1034" result="effect6_dropShadow_1_1034"/>
<feBlend mode="normal" in="SourceGraphic" in2="effect6_dropShadow_1_1034" result="shape"/>
</filter>
</defs>
</svg>
